<svg width="95" height="52" viewBox="0 0 95 52" fill="none" xmlns="http://www.w3.org/2000/svg">
<path d="M36.2285 40.3243V39.1541C36.2285 37.8794 35.6862 37.6635 35.0654 38.0384C34.0962 38.6236 33.7864 39.354 33.7864 40.4816V48.1245C33.7864 49.252 34.0966 49.6088 35.0654 49.0269C35.4474 48.8168 35.7614 48.4937 35.9683 48.0981C36.1752 47.7025 36.2657 47.252 36.2285 46.8029V44.9847L38.6319 43.5392V45.2752C38.5916 46.5146 38.2412 47.7214 37.6155 48.7755C36.9898 49.8296 36.1106 50.6942 35.0654 51.2833C32.5457 52.7942 31.3826 51.7593 31.3826 49.6311V41.8697C31.3826 39.7415 32.5457 37.3063 35.0654 35.7819C37.4692 34.3284 38.6319 35.5075 38.6319 37.7664V38.8729L36.2285 40.3243Z" fill="white"/>
<path d="M41.0759 36.0204C41.0759 33.8851 42.2387 31.4444 44.7588 29.9204C47.2789 28.3965 48.4416 29.4347 48.4416 31.5751V39.3795C48.4416 41.5204 47.2785 43.9594 44.7588 45.4702C42.2391 46.9811 41.0759 45.9408 41.0759 43.8059V36.0204ZM43.4794 42.3005C43.4794 43.4319 43.7895 43.7903 44.7588 43.2084C45.7281 42.6265 46.0382 41.8953 46.0382 40.7626V33.0881C46.0382 31.9559 45.7277 31.5979 44.7588 32.1832C43.7899 32.7685 43.4794 33.5009 43.4794 34.6323V42.3005Z" fill="white"/>
<path d="M50.7688 41.6569V26.4955L52.9977 25.1461L55.9249 32.0646L55.9654 32.0414V23.3561L58.1361 22.043V37.2436L56.0429 38.499L52.98 30.8569L52.9396 30.8801V40.359L50.7688 41.6569Z" fill="white"/>
<path d="M60.4622 35.8453V20.6328L62.6911 19.2835L65.6183 26.2302L65.6587 26.207V17.4909L67.8295 16.1782V31.4282L65.7362 32.6836L62.6733 25.009L62.6329 25.0322V34.5419L60.4622 35.8453Z" fill="white"/>
<path d="M70.1543 30.0333V14.7711L76.5898 10.8794V13.167L72.5581 15.6022V19.5373L75.6594 17.668V19.9552L72.5581 21.8224V26.3073L76.8613 23.7237V26.0122L70.1543 30.0333Z" fill="white"/>
<path d="M83.6074 11.7525V10.5634C83.6074 9.2684 83.0651 9.04533 82.4443 9.41852C81.4751 10.0038 81.1653 10.743 81.1653 11.8887V19.6539C81.1653 20.7996 81.4755 21.1652 82.4443 20.5816C82.8284 20.3676 83.1435 20.0403 83.3504 19.6404C83.5572 19.2405 83.6466 18.7859 83.6074 18.3332V16.4858L86.0109 15.0403V16.8042C85.976 18.0531 85.6283 19.2706 85.0026 20.3355C84.3768 21.4005 83.4948 22.2756 82.4443 22.8738C79.9247 24.3847 78.7615 23.3225 78.7615 21.1601V13.2773C78.7615 11.1149 79.9247 8.65232 82.4443 7.12796C84.8481 5.67443 86.0109 6.88339 86.0109 9.17858V10.3049L83.6074 11.7525Z" fill="white"/>
<path d="M89.8503 5.15797L87.5244 6.563V4.26696L94.5799 0V2.30152L92.2541 3.70613V16.7815L89.8503 18.2224V5.15797Z" fill="white"/>
<path d="M0 18.998L3.62756 21.1908C6.15088 22.7156 7.49126 24.9555 7.49126 27.9798V33.8217C7.49126 36.8447 6.15088 37.4676 3.62756 35.9487L0 33.7652V18.998ZM2.44457 33.15L3.29271 33.6602C4.59355 34.4441 5.04709 34.2063 5.04709 32.6533V26.1961C5.04709 24.6431 4.59355 23.8579 3.29271 23.0723L2.44457 22.5604V33.15Z" fill="white"/>
<path d="M10.8442 40.2915V25.5513L17.3892 29.5066V31.709L13.2888 29.2325V33.0276L16.443 34.9307V37.1335L13.2888 35.2317V39.5581L17.6651 42.194V44.3982L10.8442 40.2915Z" fill="white"/>
<path d="M25.5713 34.451L27.9763 35.9045L24.9998 48.8125L22.5549 47.3408L19.5784 30.8296L21.9834 32.2831L23.7576 43.5622L23.7979 43.5862L25.5713 34.451Z" fill="white"/>
</svg>
