<?xml version="1.0" standalone="no"?>
<!DOCTYPE svg PUBLIC "-//W3C//DTD SVG 20010904//EN"
 "http://www.w3.org/TR/2001/REC-SVG-20010904/DTD/svg10.dtd">
<svg version="1.0" xmlns="http://www.w3.org/2000/svg"
 width="677.000000pt" height="677.000000pt" viewBox="0 0 677.000000 677.000000"
 preserveAspectRatio="xMidYMid meet">
<metadata>
Created by potrace 1.14, written by Peter Selinger 2001-2017
</metadata>
<g transform="translate(0.000000,677.000000) scale(0.100000,-0.100000)"
fill="#000000" stroke="none">
<path d="M3334 6678 c-26 -46 -46 -83 -43 -83 2 0 -6 -13 -17 -30 -12 -16
-142 -239 -289 -495 -147 -256 -309 -537 -360 -625 -51 -88 -104 -180 -118
-205 -13 -25 -82 -144 -152 -265 -70 -121 -137 -238 -150 -260 -12 -22 -54
-94 -92 -160 -81 -138 -334 -579 -501 -870 -63 -110 -117 -204 -121 -210 -4
-5 -24 -40 -44 -76 l-36 -66 84 -54 c47 -30 177 -112 289 -184 287 -184 701
-447 730 -465 14 -8 91 -58 173 -110 81 -52 152 -97 158 -100 5 -3 55 -34 111
-70 55 -36 107 -69 116 -75 9 -5 84 -53 167 -106 l150 -97 223 144 c123 79
230 147 238 152 9 4 40 23 70 43 30 20 87 56 125 80 65 42 128 82 463 295 201
127 710 452 788 502 l71 46 -70 120 c-38 67 -81 141 -95 166 -36 64 -202 353
-285 495 -38 66 -80 138 -92 160 -12 22 -46 81 -74 130 -29 50 -63 108 -76
130 -52 94 -219 382 -233 405 -9 14 -15 28 -14 33 1 4 -2 7 -8 7 -5 0 -10 4
-10 9 0 5 -45 86 -100 181 -55 94 -100 173 -100 174 0 2 -31 56 -70 120 -38
65 -70 119 -70 121 0 3 -22 42 -49 87 -47 81 -327 566 -380 659 -138 244 -247
429 -253 429 -3 0 -28 -37 -54 -82z"/>
<path d="M1416 2918 c8 -13 104 -155 178 -263 23 -33 44 -61 49 -63 4 -2 7 -7
7 -12 0 -4 83 -129 184 -276 102 -148 213 -311 248 -362 35 -52 88 -129 118
-172 30 -43 93 -135 140 -205 47 -69 91 -134 98 -143 7 -9 62 -89 121 -177 60
-88 113 -164 118 -170 5 -5 12 -17 16 -25 4 -8 26 -42 49 -75 24 -33 178 -257
342 -497 165 -241 302 -438 305 -438 3 0 53 71 111 156 58 86 132 195 165 242
34 48 117 169 185 270 69 100 166 242 216 315 49 72 133 195 186 272 323 473
427 624 510 744 51 74 95 140 97 145 2 6 7 13 11 16 3 3 83 118 176 255 94
138 206 302 249 365 65 94 74 111 50 95 -42 -27 -190 -122 -315 -200 -58 -37
-139 -88 -180 -115 -41 -27 -97 -63 -125 -80 -48 -29 -750 -477 -1143 -728
l-192 -124 -265 169 c-146 92 -323 205 -393 250 -70 44 -226 144 -347 221
-178 113 -632 402 -923 589 -30 18 -50 28 -46 21z"/>
</g>
</svg>
